<svg width="40" height="40" viewBox="0 0 40 40" fill="none" xmlns="http://www.w3.org/2000/svg">
<rect width="40" height="40" rx="8" fill="#5165F6"/>
<path d="M29.981 11.3288C27.4716 9.35045 23.5018 9.0151 23.3319 9.00304C23.0684 8.98132 22.8172 9.12608 22.7088 9.36493C22.699 9.37941 22.6128 9.57483 22.5167 9.87882C24.1765 10.1539 26.2156 10.7063 28.0601 11.8282C28.3556 12.0067 28.4468 12.3879 28.2645 12.6774C28.1439 12.868 27.9395 12.9718 27.7277 12.9718C27.6144 12.9718 27.4986 12.9404 27.3952 12.8777C24.2233 10.95 20.2634 10.8535 19.5 10.8535C18.7366 10.8535 14.7742 10.95 11.6048 12.8777C11.3093 13.0586 10.9202 12.9694 10.7379 12.6799C10.5532 12.3879 10.6444 12.0092 10.9399 11.8282C12.7844 10.7088 14.8235 10.1539 16.4833 9.88123C16.3872 9.57483 16.301 9.38182 16.2936 9.36493C16.1828 9.12608 15.9341 8.9765 15.6681 9.00304C15.4982 9.0151 11.5284 9.35045 8.98455 11.3553C7.65718 12.5592 5 19.5944 5 25.6766C5 25.7852 5.02955 25.8889 5.08373 25.983C6.91593 29.1387 11.9175 29.9638 13.0577 30C13.0627 30 13.0701 30 13.0774 30C13.2794 30 13.469 29.9059 13.5872 29.7467L14.7397 28.193C11.6294 27.4064 10.041 26.0699 9.9499 25.9902C9.68886 25.7659 9.66423 25.375 9.89572 25.1193C10.1247 24.8636 10.5237 24.8394 10.7847 25.0638C10.8217 25.0976 13.7473 27.5295 19.5 27.5295C25.2626 27.5295 28.1882 25.0879 28.2177 25.0638C28.4788 24.8418 28.8753 24.8635 29.1067 25.1217C29.3358 25.3774 29.3111 25.7659 29.0501 25.9902C28.959 26.0699 27.3706 27.4064 24.2603 28.193L25.4128 29.7467C25.531 29.9059 25.7206 30 25.9226 30C25.9299 30 25.9373 30 25.9423 30C27.0825 29.9638 32.0841 29.1387 33.9163 25.983C33.9704 25.8889 34 25.7852 34 25.6766C34 19.5944 31.3428 12.5592 29.981 11.3288ZM15.4022 23.2061C14.1832 23.2061 13.1957 22.1011 13.1957 20.7356C13.1957 19.37 14.1832 18.2651 15.4022 18.2651C16.6212 18.2651 17.6087 19.37 17.6087 20.7356C17.6087 22.1011 16.6212 23.2061 15.4022 23.2061ZM23.5978 23.2061C22.3788 23.2061 21.3913 22.1011 21.3913 20.7356C21.3913 19.37 22.3788 18.2651 23.5978 18.2651C24.8168 18.2651 25.8043 19.37 25.8043 20.7356C25.8043 22.1011 24.8168 23.2061 23.5978 23.2061Z" fill="white"/>
</svg>
