<svg width="100%" height="100%" viewBox="0 0 20 20" fill="none" xmlns="http://www.w3.org/2000/svg">
<path d="M17.2283 4.66343C15.4976 3.25032 12.7598 3.01079 12.6426 3.00217C12.4609 2.98666 12.2877 3.09006 12.213 3.26066C12.2062 3.271 12.1467 3.41059 12.0805 3.62772C13.2252 3.82418 14.6315 4.21882 15.9036 5.02015C16.1074 5.14767 16.1702 5.41995 16.0445 5.62675C15.9613 5.76289 15.8203 5.83699 15.6742 5.83699C15.5961 5.83699 15.5163 5.81458 15.445 5.76978C13.2575 4.39287 10.5265 4.32394 10 4.32394C9.4735 4.32394 6.74085 4.39287 4.55503 5.76978C4.35123 5.89903 4.08288 5.83526 3.9572 5.62847C3.82983 5.41995 3.89267 5.1494 4.09647 5.02015C5.36855 4.22054 6.7748 3.82418 7.9195 3.62945C7.85325 3.41059 7.7938 3.27273 7.7887 3.26066C7.7123 3.09006 7.54075 2.98321 7.35735 3.00217C7.24015 3.01079 4.50238 3.25032 2.74796 4.68238C1.83254 5.5423 0 10.5674 0 14.9119C0 14.9894 0.0203804 15.0635 0.057745 15.1307C1.32133 17.3848 4.77072 17.9741 5.55705 18C5.56045 18 5.56555 18 5.57065 18C5.7099 18 5.8407 17.9328 5.9222 17.8191L6.71705 16.7093C4.57201 16.1474 3.47656 15.1928 3.41372 15.1359C3.23369 14.9756 3.21671 14.6964 3.37636 14.5138C3.5343 14.3311 3.80945 14.3139 3.98947 14.4741C4.01495 14.4983 6.0326 16.2353 10 16.2353C13.9742 16.2353 15.9919 14.4914 16.0123 14.4741C16.1923 14.3156 16.4657 14.3311 16.6254 14.5155C16.7833 14.6982 16.7663 14.9756 16.5863 15.1359C16.5234 15.1928 15.428 16.1474 13.283 16.7093L14.0778 17.8191C14.1593 17.9328 14.2901 18 14.4293 18C14.4344 18 14.4396 18 14.443 18C15.2293 17.9741 18.6786 17.3848 19.9422 15.1307C19.9796 15.0635 20 14.9894 20 14.9119C20 10.5674 18.1675 5.5423 17.2283 4.66343ZM7.1739 13.1472C6.3332 13.1472 5.65215 12.3579 5.65215 11.3826C5.65215 10.4072 6.3332 9.6179 7.1739 9.6179C8.0146 9.6179 8.69565 10.4072 8.69565 11.3826C8.69565 12.3579 8.0146 13.1472 7.1739 13.1472ZM12.8261 13.1472C11.9854 13.1472 11.3043 12.3579 11.3043 11.3826C11.3043 10.4072 11.9854 9.6179 12.8261 9.6179C13.6668 9.6179 14.3478 10.4072 14.3478 11.3826C14.3478 12.3579 13.6668 13.1472 12.8261 13.1472Z" fill="black"/>
</svg>