<svg width="40" height="29" viewBox="0 0 40 29" fill="none" xmlns="http://www.w3.org/2000/svg">
<path d="M34.4565 3.21596C30.9952 0.48396 25.5197 0.0208536 25.2853 0.00419445C24.9219 -0.0257907 24.5754 0.174112 24.426 0.503951C24.4124 0.52394 24.2935 0.793809 24.161 1.2136C26.4504 1.59342 29.2629 2.35638 31.8071 3.90562C32.2147 4.15216 32.3404 4.67857 32.089 5.07838C31.9226 5.34158 31.6406 5.48485 31.3485 5.48485C31.1923 5.48485 31.0326 5.44153 30.8899 5.35491C26.5149 2.69288 21.053 2.55961 20 2.55961C18.947 2.55961 13.4817 2.69288 9.11005 5.35491C8.70245 5.60479 8.16576 5.48151 7.9144 5.08171C7.65965 4.67857 7.78533 4.1555 8.19293 3.90562C10.7371 2.35971 13.5496 1.59342 15.839 1.21693C15.7065 0.793809 15.5876 0.527273 15.5774 0.503951C15.4246 0.174112 15.0815 -0.0324536 14.7147 0.00419445C14.4803 0.0208536 9.00476 0.48396 5.49592 3.2526C3.66508 4.91512 0 14.6304 0 23.0296C0 23.1795 0.0407608 23.3228 0.11549 23.4527C2.64266 27.8106 9.54144 28.95 11.1141 29C11.1209 29 11.1311 29 11.1413 29C11.4198 29 11.6814 28.8701 11.8444 28.6502L13.4341 26.5046C9.14402 25.4184 6.95313 23.5727 6.82745 23.4627C6.46739 23.1529 6.43342 22.6131 6.75272 22.26C7.06861 21.9068 7.61889 21.8735 7.97894 22.1833C8.02989 22.23 12.0652 25.5883 20 25.5883C27.9484 25.5883 31.9837 22.2167 32.0245 22.1833C32.3845 21.8768 32.9314 21.9068 33.2507 22.2633C33.5666 22.6165 33.5326 23.1529 33.1726 23.4627C33.0469 23.5727 30.856 25.4184 26.5659 26.5046L28.1556 28.6502C28.3186 28.8701 28.5802 29 28.8587 29C28.8689 29 28.8791 29 28.8859 29C30.4586 28.95 37.3573 27.8106 39.8845 23.4527C39.9592 23.3228 40 23.1795 40 23.0296C40 14.6304 36.3349 4.91512 34.4565 3.21596ZM14.3478 19.6179C12.6664 19.6179 11.3043 18.092 11.3043 16.2063C11.3043 14.3205 12.6664 12.7946 14.3478 12.7946C16.0292 12.7946 17.3913 14.3205 17.3913 16.2063C17.3913 18.092 16.0292 19.6179 14.3478 19.6179ZM25.6522 19.6179C23.9708 19.6179 22.6087 18.092 22.6087 16.2063C22.6087 14.3205 23.9708 12.7946 25.6522 12.7946C27.3336 12.7946 28.6957 14.3205 28.6957 16.2063C28.6957 18.092 27.3336 19.6179 25.6522 19.6179Z" fill="white"/>
</svg>
